<svg id="line_art" data-name="line art" xmlns="http://www.w3.org/2000/svg" viewBox="0 0 1152.98 527.02">
  <defs>
    <style>
      .cls-1 {
        fill: #fff;
      }
    </style>
  </defs>
  <title>grafik-people-table</title>
  <path class="cls-1" d="M1151,527h-60.12a2,2,0,0,1-1.54-.72,2,2,0,0,1-.43-1.65c10.15-54-16.55-135.7-28.5-168.3-3-8.19-7.33-16.17-11.52-23.89-4.07-7.51-8.27-15.26-11.18-23.1-4.27-11.53-11.51-27.58-21.74-38.61-10.54-11.37-21.33-15.29-32.08-11.66-18.35,6.21-33,34.24-35.07,56.52q-.52,5.59-.49,11.22c14.16-9.78,23.62-12.6,28.74-8.63a2,2,0,0,1,.65,2.28c-3.92,10.56-15.7,18.24-28.14,24.06,2,15.58,6.14,31.14,10.18,46.38,3.46,13,7,26.51,9.17,39.66.38,2.37.81,4.74,1.23,7.09,2.6,14.59,5.3,29.67-1.59,45.52-6.8,15.64-23.71,29.67-39.33,32.65-26.29,5-46.38-.28-61.57-16.56-12.06,1.15-24.18,1.4-34.2-6.31-11.41-8.77-17.1-27-21.26-40.23-.34-1.07-.66-2.1-1-3.1-.94-3-1.79-6.26-2.7-9.75-2.11-8.13-4.41-17-8.32-24-2.22-.64-4.84-1.33-7.61-2.06-12.17-3.2-28.63-7.53-37.39-14.39-3.45,0-7,0-10.38-.14-18.35-.91-37.61-1-56.23-1.17-19.17-.13-39-.26-58-1.25-71.91-3.71-145.78-1.76-217.22.13-41.66,1.1-84.74,2.24-126.94,2.24-4.14,0-8.29,0-12.44-.06-14.85-.09-30.18-.19-44.95,1-4.52,8.9-6.71,21.28-8.45,31.15-.51,2.86-1,5.56-1.47,7.87l-.91,4.36c-4,19.13-8.52,40.81-15.37,59.52-3.15,8.62-6.54,13-10.08,13h-.14c-4.29-.14-6.12-6.38-6.72-8.43-1.66-5.65-1-14.4-.48-22.13.14-1.92.27-3.75.35-5.38.2-4,.35-8.06.51-12.33.58-15.17,1.17-30.86,4-45.14,4.28-21.79,17.16-24.6,36.32-26.28a25.53,25.53,0,0,1,8.07-9,37,37,0,0,1,12.15-4.76c-6.74-3.26-12.34-9.43-18.34-17.83C210,338.88,200,333.16,194.76,333c6.43,9.37,9.57,17.49,3.77,32.36-3,7.68-7.78,14.29-12.4,20.69-4.5,6.23-9.16,12.67-12,19.95-9.49,24.49-4,50.89,1.4,76.42,1.85,8.79,3.59,17.09,4.75,25.33a2,2,0,0,1-.63,1.75,2,2,0,0,1-1.8.48c-10-2.29-27.75-29.25-30.82-34.46-9-15.23-12.89-38.84-9.5-57.43,3.71-20.35,15.38-36.08,27-50.45,2.27-2.8,4.8-7.76,7.47-13,4.71-9.25,9.9-19.44,16.36-23.65l-1.15-1.56c-1-1.34-2-2.75-3.1-4.23l-2-2.84c-18-24.87-36.55-50.58-30.84-83.36,2.24-12.81,12.74-25.79,24.57-31.2-12.68-1.93-26.07-.61-38.55,2.92-.93,2.28-1.91,4.55-2.94,6.79-9.62,20.85-25,38.59-39.82,55.75-15.19,17.55-29.6,34.2-38.53,54A317.83,317.83,0,0,0,52.7,372.6c-.06,36.08,3.22,103.74,25.84,151.57A2,2,0,0,1,76.73,527H2a2,2,0,0,1,0-4H73.61c-21.77-48.33-25-114.72-24.91-150.43a324.41,324.41,0,0,1,2.54-40.18,2,2,0,0,1-.89-1.35c-1.8-10.44,1.64-20.93,6.79-31a259.78,259.78,0,0,1,10.1-32.54c7.66-19.85,13.44-40.5,19-60.46C90.57,191.7,95,175.8,100.38,160c3.36-9.91,5.94-20.8,8.67-32.33,5.88-24.82,12-50.48,26.66-69.17,25-31.8,66.78-27.23,97.08-8.6,1,.59,1.88,1.2,2.79,1.82a2,2,0,0,1,0-2.27c6.78-9.61,18-14.46,31.64-13.65a58.23,58.23,0,0,1,10.69,1.68c15.48-8.7,48-12.17,65.23-5.59,10.78,4.13,12.75,10.8,12.51,15.67-.12,2.28-1.4,3.92-2.53,5.37-.94,1.2-1.74,2.24-1.73,3.39,0,2.27,1.87,5.3,3.35,7.74.56.92,1.08,1.79,1.52,2.62.91,1.72,1.94,3.33,2.94,4.88,2.77,4.31,5.62,8.77,5.44,15.11A32.44,32.44,0,0,1,363,95.38c-1.25,4.22-2.16,7.27.56,12.47,2.33,4.47,7.45,9.46,11.18,13.1l.36.35a2,2,0,0,1,.39,2.32c-2.38,4.77-6.51,5.35-9.84,5.83-2.18.31-4.07.57-5.2,1.89s-1.2,3.08-1.29,5.15c-.11,2.49-.24,5.47-2.38,8.09,2.34,3,.86,7.5-.48,11.58-2,6.1-3,10.3.73,13,3.15,2.23,9.48,2.87,15.6,3.49,5.59.57,11.38,1.16,15.44,3,16.72,7.66,21.72,24.17,26.55,40.14,1.16,3.81,2.35,7.75,3.68,11.43,4.7,13.06,9.83,26.79,16.5,40.24q12.35-5.15,24.83-10.81c14.91-6.75,31-11.37,44.85-15,2.81-.73,7.71-1.16,13.49-1.61-.13-.54-.24-1.11-.34-1.7-.36-2.17-.27-14.93.92-22.78C501.69,224,492.18,233,491.39,241.23l-.06,1a2,2,0,0,1-2.06,1.9,2,2,0,0,1-1.94-2c0-.41,0-.81.07-1.22,1.79-29,16.62-45.12,46.55-50.43a72.22,72.22,0,0,1,1.71-13.39c.21-1,.41-1.86.59-2.71,2.32-10.66,3.63-14,16-13.48a100.31,100.31,0,0,1,12.75,1.4c-1.61-2.75-3.4-5.49-5.17-8.21-3.17-4.86-6.16-9.44-8.11-14-6.81-16-8.26-32.76-4.84-56,2.72-18.47,12.47-39.82,31.67-44.32a20.51,20.51,0,0,1,7.34-.14,20.28,20.28,0,0,0,5.22.11,57.18,57.18,0,0,0,8.25-2.06c1.55-.47,3.14-.95,5-1.45,9.35-2.5,20.07-.93,27,1.37,38.63,12.9,46.5,56.7,37.16,94.38-1.65,6.62-4.63,13.79-7.52,20.72-5.58,13.39-11.34,27.22-7.62,37.31,1.79.9,3.55,1.83,5.16,2.82a2,2,0,0,1,.76,2.57l-.87,1.79c2.95,2.59,7,4.68,12.18,6.34,3.43,1.1,6.92,2.08,10.61,3.12,9.86,2.76,20,5.63,28.94,10.83,12.59,7.37,14.19,16.58,15.87,26.33a81.86,81.86,0,0,0,2.82,12.32,2,2,0,0,1-1.26,2.53,77.36,77.36,0,0,1-19.65,3.39c4.4.14,8.81.33,13.16.51,22.79,1,46.33,2,67.38-2.7-.75-1.77-2.54-3.07-5.1-4.83-3-2.07-6.48-4.43-7.67-8.72-2-7.25,2.74-17.82,5.9-24.82,8.36-18.57,19.91-32.47,36.35-43.73,6.07-4.17,8.85-10.65,7.23-16.92-1.66-6.48-7.53-11-15.3-11.74-1.19-.12-2.27-.2-3.25-.29-8.86-.72-11.37-1.36-16.08-12.31-2.06-4.8-4.09-9.7-6.06-14.44q-1.42-3.46-2.89-6.94c-3.2-7.67-4.28-12.14-2.69-20,1.78-8.82,1.78-8.82,0-17-2.63-12.37-3.29-29.5,2.5-41.4-4.51-5.29-9.53-14.84-6.92-22.51,2.86-8.36,9.85-9.1,16.61-9.81,1.33-.14,2.71-.29,4.05-.49,2.12-.32,4.22-.65,6.32-1,16.17-2.56,31.45-5,47.32-.07,14.85,4.6,29.53,17.63,35.72,31.69,4.13,9.4,4.52,17.46,1.15,24,7.87-6.38,18.31-11.33,23.91-12.81,14.24-3.75,34.38-2.34,49,3.44C989.57,61.5,996,99.65,997,121.29c.22,4.47.28,9.14.35,14.09.21,15.78.44,33.66,6.22,46.88,3.82,8.74,10.55,13.48,17.68,18.49,5.71,4,11.62,8.16,16.07,14.55,9.6,13.78,13.28,33.77,15.71,47,1.43,7.79,1.16,16.21.89,24.36-.28,8.69-.58,17.62,1.25,25.63.45,1.44.88,2.93,1.28,4.44a2,2,0,0,1-3.82,1.17,42.33,42.33,0,0,1-1.33-4.59,78.8,78.8,0,0,0-5.61-13.58c-2.62-4.9-5.33-9.66-8-14.26-4.8-8.42-9.33-16.37-13.46-25.33-1-2.21-2-4.43-3-6.65-5.68-12.84-11-25-22.92-33.19-12.44-8.6-25.89-12-39-9.8,3.21,1.29,6.55,2.44,9.94,3.61,12.47,4.31,25.37,8.75,33.06,21.26a2,2,0,0,1-3.38,2.14c-8-12.19-33.92-10.28-46-6.54-18.85,5.82-33.26,15.5-45.34,30.48q-4.86,6-9.74,12.16c-19.72,24.69-40.12,50.21-63.92,71.57-.49.43-1,.89-1.51,1.37-4.87,4.43-11.54,10.5-17.81,11.15-5.21.55-10.63-2.27-15.88-5-3.38-1.77-6.58-3.43-9.42-4.05-8.57-1.88-17.09-1.15-25.34-.44l-.92.08a2,2,0,0,1,1.25,1c4.6,8.46-.67,17-5.31,24.6-2.58,4.2-4.65,7.73-5.58,10.89a318.43,318.43,0,0,1,44.58,4.85c13.13,2.51,23.06,12.39,31.07,25.07,25.53-2.95,46-21,66.09-41.06l.64-.65c1.94-1.93,4.88-4.88,8.54-8.43a9.45,9.45,0,0,1,.55-3c1.75-4.88,7.13-7.85,13.35-10.09,5.19-4.73,10.79-9.66,16.44-14.27q5.09-4.17,9.61-7.49a117.7,117.7,0,0,1,.46-14.42c2.23-23.43,17.3-53,37.76-59.93,8.52-2.87,21.72-3,36.31,12.73,10.67,11.51,18.15,28.07,22.55,39.94,2.81,7.57,6.76,14.86,11,22.58s8.65,16,11.76,24.43c11.89,32.44,38.24,113.06,29.09,168H1151a2,2,0,0,1,0,4ZM872.86,498.75c14,13.41,32.22,17.61,55.61,13.16,14.44-2.75,30.09-15.78,36.41-30.32,6.41-14.73,3.94-28.57,1.32-43.22-.43-2.37-.85-4.75-1.24-7.15-2.1-13-5.65-26.34-9.09-39.28-4-15-8-30.28-10.12-45.68-2.83,1.24-5.65,2.38-8.39,3.44-2.37.93-5.32,1.76-8.45,2.64-2.72.77-5.66,1.6-8.45,2.56-3.72,3.41-7.68,7.14-11.92,11.23a14.94,14.94,0,0,0,2.61,5.54c4.39,6.3,10.4,11.79,16.2,17.1,5.43,5,11,10.09,15.45,16a73.5,73.5,0,0,1,15,46.32c-.26,20.19-9.34,34.77-24.9,40s-29.23,5.87-45,6.6l-4.88.23C879.71,498,876.38,498.37,872.86,498.75ZM224.41,400.54c-18.24,1.79-26.77,5.08-30.26,22.84-2.74,14-3.33,29.5-3.9,44.52-.16,4.29-.32,8.34-.52,12.37-.08,1.67-.21,3.52-.35,5.48-.5,7-1.13,15.76.33,20.71,1.33,4.53,2.62,5.55,3,5.56h0c.67,0,3.23-1.88,6.33-10.36,6.74-18.44,11.23-40,15.2-59l.91-4.36c.48-2.25,1-4.92,1.45-7.75C218.28,421.23,220.31,409.72,224.41,400.54Zm-33.68-66.29c-5.59,3.47-10.8,13.7-15.14,22.22-2.77,5.45-5.39,10.59-7.92,13.72-11.31,14-22.64,29.22-26.18,48.65-3.23,17.72.47,40.2,9,54.68,5.28,8.94,17.71,25.9,25.29,31.11-1.11-6.91-2.59-14-4.14-21.36-5.48-26.1-11.14-53.09-1.22-78.69,3-7.75,7.82-14.41,12.47-20.85s9.1-12.59,11.92-19.8C200.12,350.32,197.26,343.52,190.73,334.25Zm614.58,82.94c3.24,6.94,5.28,14.78,7.07,21.7.89,3.44,1.74,6.68,2.64,9.53.32,1,.65,2.05,1,3.12,4,12.77,9.48,30.26,19.88,38.26,8.09,6.22,18.23,6.56,28.53,5.75a97.83,97.83,0,0,1-12.78-21.25c-2.23-4.89-4.52-10.68-6.94-16.81-5-12.63-10.55-26.74-17.62-38.53A72.35,72.35,0,0,1,805.31,417.19Zm26.13,1.3c6.78,11.71,12.14,25.29,17,37.54,2.39,6.07,4.66,11.82,6.85,16.62a88.88,88.88,0,0,0,14.08,22.44l2.69-.28c3.56-.38,7.23-.76,10.74-.94l4.88-.23c16.11-.74,28.84-1.33,43.91-6.39,19-6.37,22-25.45,22.18-36.25a69.64,69.64,0,0,0-14.14-43.87c-4.2-5.56-9.67-10.57-15-15.41-6-5.45-12.13-11.1-16.78-17.76a21.71,21.71,0,0,1-2.56-4.69q-3.21,3.14-6.61,6.53l-.65.65C877.79,396.67,857.2,414.84,831.44,418.49Zm-28.65-6.06A70.46,70.46,0,0,0,824.6,415c-7.27-11-16.08-19.36-27.28-21.5a317,317,0,0,0-44.36-4.8c.16,2.34,1.26,4.51,3.66,6.65h.19c13.26-.11,27-.22,37.8,7.74A31.5,31.5,0,0,1,802.79,412.43Zm-40.28-13.06c8.65,4.65,21.3,8,31.09,10.55l3.21.85a24.69,24.69,0,0,0-4.56-4.41C783.92,400.25,773.26,399.42,762.51,399.37ZM257.33,385.2c-7.82.56-15.21,2.07-20.55,5.51a19.68,19.68,0,0,0-5.27,5.23c14.06-1,28.48-.88,42.47-.79,4.15,0,8.29.06,12.42.06,42.15,0,85.2-1.14,126.84-2.24,71.51-1.89,145.46-3.84,217.53-.12,18.94,1,38.71,1.11,57.84,1.24,18.66.13,38,.26,56.4,1.18,2,.1,4.15.14,6.27.14a12,12,0,0,1-2.31-6.85l-5.48-.2a23.44,23.44,0,0,1-1.83,2.2,2,2,0,0,1-2.24.47c-2.21-.94-4.38-1.93-6.54-3-4.25-.1-8.49-.17-12.71-.25-11-.19-22.48-.4-33.6-.95-37.08-1.82-73.5-3.47-110.9-3.36-22.36.06-41.1-.31-57.28-1.13-12.23-.61-25.4.61-38.13,1.78-6.62.61-13.46,1.24-20,1.59-23.67,1.26-47.87.51-71.29-.22-14.17-.44-28.84-.9-43.18-.9-8,0-16.14.33-24,.66-11.19.46-22.77.94-34.39.46-1.91-.08-3.95-.18-6.08-.3-5.58-.29-12-.63-18.35-.5A33.57,33.57,0,0,1,257.33,385.2Zm488.57-.76,3.53.13c1.05-4.35,3.72-8.7,6.23-12.79,4.06-6.62,7.92-12.9,6-18.81-7.33,4.18-9.36,11.55-11.5,19.32A63.9,63.9,0,0,1,745.9,384.44Zm-12.06-.35c2.52.06,5,.12,7.57.2,2.34-3.86,3.58-8.36,4.88-13.06,2.45-8.9,5-18.1,15.51-22.83-8.15.68-16.54,1.15-24.95-1.09-37.94-10.09-70.22-26.19-96.8-40.6l-.29-.15c-12.3-6.67-29.91-16.22-44.09-12.11l.32.24a42.48,42.48,0,0,1,6.44,7,44.16,44.16,0,0,0,5.9,6.53c1.72,1.42,3.5,2.72,5.39,4.1a83.23,83.23,0,0,1,8,6.35,2,2,0,0,1,.43,2.35c-3,6.2-14.24,12.24-24.67,16,6.33,7.66,13.58,9.09,22.48,10.84a91,91,0,0,1,14.69,3.81c8.12,3,16.61,3.71,24.82,4.37,7.26.59,14.76,1.2,22.14,3.38,13.07,3.85,24.82,10.2,36.18,16.35C723,378.55,728.35,381.44,733.84,384.09Zm-155-4.59c36.42,0,71.85,1.6,107.94,3.38,11.05.54,22.45.75,33.47.94l4.35.08c-2.94-1.54-5.85-3.11-8.71-4.65-11.18-6.05-22.75-12.3-35.41-16-7-2.06-14.28-2.65-21.33-3.22-8.48-.69-17.26-1.4-25.9-4.61a87.19,87.19,0,0,0-14.07-3.63c-9.37-1.85-18.26-3.61-25.74-13.43a50.1,50.1,0,0,1-12,2.42,2,2,0,0,1-1.87-2.85c1.8-3.84,4.86-6.57,7.81-9.21l.68-.6c-.61-1.79-1.11-3.59-1.6-5.36a60.49,60.49,0,0,0-2.82-8.5,45.38,45.38,0,0,0-2.18-4.14c-3.28-5.66-3.85-8.81,4.45-15.12l.06,0a65.77,65.77,0,0,0-8.51-.53c-4-.08-8.07-.16-11.72-1.16-2.06-.29-5-.5-8.4-.74-2.39-.17-4.72-.34-7-.54a45.1,45.1,0,0,1-12.55,19.74,55.78,55.78,0,0,0-1.73,6.3q-.2.9-.39,1.83c-1.48,6.93-3,14.09,1.12,18.57,1.57,1.71,4.29,2.61,7.18,3.56,4.66,1.53,10.46,3.44,11,10.06a2,2,0,0,1-1.49,2.1c-16.7,4.38-42.72,1.87-59.24-5.72a2,2,0,0,1-1.16-2c.49-5.9,6.15-6.77,10.69-7.47A21.65,21.65,0,0,0,510,337.4c7.46-3.82,8.47-5.81,9.93-13.42.05-.25.1-.5.14-.75a230.87,230.87,0,0,1-22.81,8.86c-3.84,1.34-7.81,2.73-11.61,4.17-7.3,3.38-45.05,8.45-52.47,8-15.26-.94-30.22-5.32-40-11.72a2.09,2.09,0,0,1-.72-.84,26.83,26.83,0,0,1-1.72-5.22q-4.76,2-9.65,3.92c-5.31,2-10.67,4.39-15.86,6.66-10.55,4.63-21.45,9.41-32.38,11.68-4.57.94-9.53,2.22-14.78,3.58l-2.14.55c-2.31,1.51-4.56,3.08-6.76,4.73-3.32,2.49-6.54,5.22-9.65,7.87-6.94,5.89-14.07,12-22.8,15.74l4.9.25c2.11.11,4.13.22,6,.29,11.46.47,22.95,0,34.07-.46,7.89-.32,16.05-.66,24.15-.66,14.41,0,29.1.46,43.31.9,23.33.73,47.45,1.48,70.95.22,6.43-.34,13.23-1,19.81-1.57,12.87-1.19,26.18-2.42,38.7-1.79,16.11.81,34.78,1.18,57.07,1.12ZM194.57,329c8.93,0,21.07,10.93,37.12,33.41,8.2,11.48,15,18.09,25.2,18.75,2-.15,4.07-.23,6.12-.26a48.68,48.68,0,0,0,7.13-1.59c10.47-3.09,18.37-9.81,26.74-16.92,2.72-2.31,5.52-4.69,8.42-6.94-8.14,1.88-16.11,3.25-23.22,3.17a2,2,0,0,1-1.88-1.41c-2.86-9.15-8.33-16.77-14.13-24.84-2.09-2.9-4.24-5.9-6.26-9a375.34,375.34,0,0,1-20-35.19,234.81,234.81,0,0,1-9.31-22.2c-7.21-18.9-15.39-40.32-30.57-49.64a62,62,0,0,0-16.23-6.93c-.64.13-1.28.28-1.89.44-12.15,3.21-24.32,16.85-26.58,29.8-5.42,31.11,12.66,56.13,30.15,80.33l2,2.84c1.06,1.47,2.09,2.87,3.07,4.2l1.66,2.26a10,10,0,0,1,2.32-.31ZM193.41,208.6A63.53,63.53,0,0,1,202,213c16.34,10,24.78,32.13,32.22,51.62a229.86,229.86,0,0,0,9.13,21.81,373,373,0,0,0,19.82,34.82c2,3,4.11,6,6.17,8.83,5.45,7.58,11.08,15.41,14.24,24.58,9.19-.14,20-2.75,30.68-5.49,9.62-6.24,20-11.41,30.65-16.55,15.63-7.54,30.06-11,44.83-10.7-2-10.27-1-21.72.25-33q-11.22,3.9-22.23,7.33a272.66,272.66,0,0,1-26.63,6.41c-8.23,1.68-16.75,3.43-25,5.93-1.71.52-3.6,1.24-5.59,2-6.77,2.61-14.44,5.57-21.47,3.07-4-1.41-8-5.49-11.51-9.08a51,51,0,0,0-4.71-4.45c-3.24-2.46-6.66-4.79-10-7-9.65-6.57-19.62-13.35-26.1-24.1-4.55-7.55-5.15-16.13-5.73-24.43-.56-8-1.09-15.56-4.9-22.13-4.31-7.42-15.24-12-26.37-13.4l-.26.41a2,2,0,0,1-3.13.35q-.58-.58-1.2-1.14C194.59,208.62,194,208.61,193.41,208.6ZM777.32,343.45a59.86,59.86,0,0,1,12.92,1.29c3.37.74,7,2.6,10.42,4.41,4.72,2.45,9.58,5,13.61,4.57,5-.52,11.08-6.07,15.53-10.13l1.54-1.39a373,373,0,0,0,30.81-31.52c-8.2,7.19-17.73,14.42-19.89,15.45-15,7.19-35.47.76-49.55-4.7a299.43,299.43,0,0,0-59.07-16.27c-19.42,1.54-39.43,1.63-57.92-3.74l-.74.08c-10.42,1.12-21.2,2.28-31.38-.15-11.74-2.79-15.38-9.27-19.59-18.82-.25-.57-.65-1.4-1.14-2.41l-.09-.18a23.07,23.07,0,0,1-21.93,6,90.13,90.13,0,0,1-10.59-3.79c-7-2.82-13-5.28-19-3.58l.47.27c6.23,3.45,12.65,7,17.6,12.71.5.13,1,.27,1.47.43,16.36-7.61,36.83,3.49,50.82,11.08l.29.16c26.36,14.3,58.38,30.26,95.92,40.25,8.51,2.26,16.92,1.54,25.83.78C768.17,343.84,772.7,343.45,777.32,343.45Zm-279.81,2c15.21,6.46,37.75,8.68,53.17,5.26-1-2.53-3.79-3.58-7.92-4.94-3.24-1.07-6.58-2.17-8.86-4.64-5.55-6-3.71-14.57-2.09-22.13.13-.61.26-1.21.38-1.81l.24-1.07a73.22,73.22,0,0,1-7.94,4.91c-.2,1.24-.41,2.49-.65,3.73-1.68,8.78-3.37,11.79-12,16.23a24.2,24.2,0,0,1-7.36,1.92C500.52,343.48,498.34,344,497.51,345.42Zm447.07-10.89c-4.89,3.69-10.55,8.3-17.08,14.05l.32-.09c3-.85,5.9-1.66,8.09-2.51,2.45-1,5.72-2.23,9.33-3.82C945,339.62,944.73,337.07,944.58,334.53Zm-563.79-8.32c-11.13,1-22.27,4.27-34.16,10-6.4,3.08-12.7,6.18-18.78,9.52,1.41-.33,2.79-.64,4.14-.92,10.51-2.18,20.75-6.67,31.58-11.42,5.23-2.3,10.64-4.67,16-6.74Zm567.64,5.48q.2,4.35.65,8.71c9.48-4.54,20.06-11.1,24.17-19.68C970.39,319.93,963.65,320.8,948.43,331.69Zm-552.62-2.18c9.27,5.86,23.26,9.87,37.59,10.76,7,.42,44-4.54,50.59-7.66l.15-.06c3.87-1.47,7.89-2.88,11.78-4.23,8.72-3.05,17.28-6,24.9-9.89a105.05,105.05,0,0,0-1.21-34.92,109.64,109.64,0,0,1-1.92-25.4c-6.84-1.15-14.27-2.24-17.56.35a4.82,4.82,0,0,0-1.68,2.8c.95.35,2.19.74,3.48,1.13,5.27,1.62,11.24,3.46,11.89,7.5.54,3.38-3,5.93-4.21,6.76-3.25,2.31-6.6,1.83-9.69.59,3.32,2.51,5.66,5.82,5.82,9.84a2,2,0,0,1-1.84,2.08,22.65,22.65,0,0,0-5.78,1.42l-.08,0,1.89,1.43c8.61,6.49,14.16,11,13,14.81-.85,2.74-4.41,2.88-5.58,2.93-2.35.12-5.08-1.72-9-4.49a31.89,31.89,0,0,0-4.16-2.67c-5.34-2.31-11.71-3-16.11-3.2a98.07,98.07,0,0,0-28,2.94c1.33,7.66.36,15.19-5.56,20.94-10.3,10-25.75,7-38.17,4.66-3.69-.7-7.18-1.37-10.26-1.67l-1.35-.12A23.7,23.7,0,0,0,395.81,329.51Zm193.81,2.54a43.53,43.53,0,0,0-4.26,4.21,56.8,56.8,0,0,0,5.73-1.39A27,27,0,0,1,589.62,332.05Zm3.12-2.85a25.92,25.92,0,0,0,2.27,4.41h0c9.23-3.21,19.26-8.39,22.76-13.11-2-1.78-4.25-3.39-6.4-5-1.86-1.35-3.78-2.75-5.59-4.25a46.89,46.89,0,0,1-6.48-7.12,43.59,43.59,0,0,0-5.27-5.91c2.94,5.15,6.65,13.56,5,21C598,323.5,595.52,326.53,592.74,329.2Zm-193.4-6.54c2.45.36,5.05.86,7.75,1.38,12.11,2.31,25.83,4.94,34.63-3.61,4.64-4.5,5.48-10.62,4.45-17-13,3.68-25.42,9.4-38.21,15.31Q403.7,320.68,399.34,322.66Zm348.5-18.83a298.64,298.64,0,0,1,46.32,13.87c7.71,3,31.18,12.1,46.37,4.82,4.74-2.27,28.52-22.47,30.3-26.31-.62-1.47-6.89-4.73-10.28-6.49-3.88-2-7.54-3.91-9.32-5.67-4.66-4.59-8.1-10.3-11.42-15.81-1.18-2-2.29-3.81-3.46-5.61-9.17-14.18-25.24-17.71-38.81-18.93.51,4.39,5.13,7,11.81,10.26,5.62,2.75,11.43,5.6,12.4,10.92.72,4-1.4,8.46-6.66,14-11.8,12.47-29.56,21-47.49,22.82-3.7.37-7.44.78-11.23,1.2ZM589,297.66c-.22.16-.44.31-.65.48-6.36,4.84-5.79,5.82-3.41,9.94a46.65,46.65,0,0,1,2.37,4.51,64.48,64.48,0,0,1,3,9.05c.32,1.13.63,2.25,1,3.35a14.53,14.53,0,0,0,3.8-6.66C596.51,312.11,593,303.77,589,297.66ZM394.16,287.44c-1.32,11.49-2.47,23.21-.57,33.42,4.31-1.91,8.53-3.86,12.7-5.79,13-6,25.66-11.86,39-15.61-2.14-8.07-6.6-16.2-9.7-21.85l-.43-.78q-1.15-2.13-2.27-4.27Q413.32,280.65,394.16,287.44Zm127.47-28.67a104.91,104.91,0,0,0,1.9,24,109.09,109.09,0,0,1,1.6,33.36,57.13,57.13,0,0,0,9.26-6.64,142.12,142.12,0,0,1,7.6-16.66l.85-1.67c-7.61-1.05-13.45-2.72-16-5.91a2,2,0,0,1,.1-2.59c2.4-2.61,5.32-3.93,8.14-5.21a25.83,25.83,0,0,0,6.76-3.94c2.63-2.3,4.82-5.69,6.77-8.91a79.59,79.59,0,0,1-9.78-22.49c-4.43.62-9.44,1.08-14.84,1.51l0,.1c1.77,2.3,4.34,3.81,7.56,5.7,1.49.87,3,1.77,4.64,2.85a2,2,0,0,1,.89,1.73,5.22,5.22,0,0,1-1.89,4C532.5,260.2,527.54,259.71,521.63,258.77ZM60.91,301.51q-1.52,6.35-2.76,12.86c9.13-15.74,21.39-29.9,33.33-43.71,14.67-16.94,29.83-34.47,39.22-54.81.54-1.18,1.07-2.37,1.58-3.56a99.06,99.06,0,0,0-27.41,14.13c-10.42,7.78-14.7,18.52-19.23,29.89a133.57,133.57,0,0,1-8,17.45C75.8,277,73.63,280.42,71.33,284,67.77,289.62,64,295.51,60.91,301.51ZM275,296.73l.27.21a54.09,54.09,0,0,1,5.14,4.83c3.23,3.29,6.89,7,10,8.12,5.64,2,12.58-.67,18.7-3,2.06-.8,4-1.55,5.87-2.11,8.41-2.55,17-4.32,25.34-6,8.63-1.77,17.55-3.6,26.24-6.31q11.83-3.68,23.93-7.93c.66-5.75,1.29-11.18,1.56-16.33.92-18.12-.5-34.45-4.37-49.92l0-.13c-3.48-13.92-8.24-33-24.17-35.32-6.58-1-13.58,1.46-20,5.61a55.37,55.37,0,0,1,7,6.84c1.59,1.75,3.23,3.56,5.27,5.47a2,2,0,0,1-1.34,3.46c-14.94.16-20.71,1.37-32.85,9.58a2,2,0,0,1-3-2.43c3.2-7.6,9.8-16.26,17.88-22.77-1-.56-2.07-1.07-3.08-1.56-3.27-1.6-6.63-3.23-9.05-6.7-2.37,1.48-4.33,3.85-5.53,7.83-2.25,7.48-3.39,15.3-4.48,22.87-1.48,10.21-3,20.77-7.3,31a2,2,0,0,1-1.26,1.14,2,2,0,0,1-1.69-.25c-8.59-5.72-17.88-20.79-23.14-32.58-.64,3.31-1.32,6.7-2,10.21-3.93,19.57-8.29,41.22-6.25,60.45.35,1.73.71,3.46,1.07,5.16.61,2.9,1.23,5.89,1.78,8.85A2,2,0,0,1,275,296.73Zm199.06-1.4c1.37,0,2.75,0,4.15.09,4.74.2,11.63,1,17.53,3.53a32.61,32.61,0,0,1,4.88,3.07c1.87,1.32,5.33,3.76,6.51,3.76h0a6.62,6.62,0,0,0,1.83-.26c-.87-2.3-8.51-8-11.47-10.28a44.31,44.31,0,0,1-5.06-4.1,2,2,0,0,1-.45-1.92,2,2,0,0,1,1.43-1.37c1.18-.3,2.31-.68,3.39-1.05a32.68,32.68,0,0,1,4.6-1.33c-1.82-5.76-11-9.53-17.69-9.79a2,2,0,0,1-1.56-3.15c4.72-6.76,10.84-3.41,15.31-1s7.18,3.7,9.8,1.83,2.58-2.83,2.58-2.87c-.26-1.58-6.46-3.49-9.11-4.31a31.75,31.75,0,0,1-5.47-2,2,2,0,0,1-1-1.89,9.27,9.27,0,0,1,3.38-7c4.58-3.61,12.47-2.53,20.32-1.22a60.36,60.36,0,0,1,1.7-9.74l-.24-.44c-5.87.45-11.28.89-13.92,1.58-13.65,3.59-29.58,8.15-44.22,14.78Q448.9,265.89,436.63,271c.67,1.3,1.36,2.59,2.07,3.89l.43.78c3.22,5.87,7.8,14.22,10.07,22.75A103.65,103.65,0,0,1,474.06,295.33Zm215,5a146.39,146.39,0,0,0,23.48,1.76q-6.64-.82-13.76-1.53A71.25,71.25,0,0,0,689.08,300.3Zm3.4-4.06c2.25,0,4.5.09,6.72.31,12.58,1.26,24,2.75,34.62,4.58,7.5-.59,14.92-1.41,22.12-2.2,3.79-.41,7.55-.83,11.25-1.2,17-1.73,33.83-9.8,45-21.59,4.19-4.43,6.08-8,5.62-10.55-.6-3.33-5.28-5.61-10.22-8-7.11-3.47-15.16-7.41-14-16.28a2,2,0,0,1,2.13-1.73c14.9,1.12,33.36,4.51,44,20.91,1.2,1.86,2.38,3.83,3.53,5.72,3.19,5.31,6.5,10.79,10.8,15,1.35,1.33,4.91,3.18,8.35,5,7.35,3.81,12,6.4,12.44,9.63,6.8-8.19,13.42-16.49,20-24.69,3.26-4.07,6.51-8.14,9.76-12.17,12.6-15.63,27.62-25.73,47.27-31.79,7.61-2.35,22.43-4.43,34.58-1.62-5.53-3.21-11.85-5.39-18.35-7.64A139.43,139.43,0,0,1,953,212c-12.76,4-24.56,13.26-33.69,26.63a2,2,0,0,1-3.56-.52c-3.21-10-15.75-31.15-26.58-35.61-2.55-1-6.13-.51-9.93.07-6,.91-12.85,1.95-17.06-3.73-2.24-3-1.63-6.24-1.14-8.83.31-1.67.59-3.12.11-4.15s-.73-1.66-1-2.35c-.87-2.14-1.22-3-3.48-4.43a2,2,0,0,1-.9-1.29,2,2,0,0,1,.31-1.54c2.32-3.37,5.66-4.69,8.88-6,2.7-1.06,5.28-2.09,7.33-4.3a53.26,53.26,0,0,0-5.44.07c-4.63.24-8.63.44-12.32-4.45a2,2,0,0,1,0-2.41c3-4,4.13-7.56,3.26-10.36s-3.79-4.4-6-5.15c-5.59-1.87-8.3-3.95-8.79-6.75-.72-4.16,3.92-7.81,9.81-12.44,9.53-7.51,9.33-12.68,9.06-19.83-.2-5.16-.44-11.33,3.19-19.33-1.31,1-3.31,1.47-6.73.82a2,2,0,0,1-1.35-.94,2,2,0,0,1-.19-1.63c3.94-12.44-8.14-21.25-15.9-24.49a2,2,0,0,1-1.23-1.73,93.26,93.26,0,0,1,0-9.38c.4-9.74.53-13-14.07-14.39-11.75-1.11-21.28,1.24-31.38,3.74-2.3.57-4.69,1.16-7.11,1.71a2,2,0,0,1-1.68-.37,1.9,1.9,0,0,1-.37-.38c-5.42,11-4.63,27.72-2.25,38.94,1.87,8.77,1.87,9.3,0,18.67-1.45,7.13-.3,11,2.47,17.64l2.89,7c2,4.73,4,9.62,6,14.39,4,9.19,5,9.27,12.72,9.91,1,.08,2.11.17,3.32.29,9.49.93,16.69,6.57,18.79,14.72,2,7.94-1.35,16.07-8.85,21.22-15.8,10.83-26.92,24.2-35,42.08-2.74,6.07-7.32,16.24-5.69,22.1.8,2.88,3.36,4.64,6.08,6.49,3.23,2.22,6.9,4.73,7.21,9.5a2,2,0,0,1-1.53,2.08c-22.07,5.3-46.63,4.26-70.39,3.25-9.94-.42-19.34-.82-28.56-.79A147.64,147.64,0,0,1,676,264.59c-10.68-1.18-20.77-2.31-30.11,1.07-3.36,1.22-7.42,3.27-7.64,6.13-.35,4.36,6.75,10.61,21.11,18.58a83.64,83.64,0,0,0,16.74,7A154.66,154.66,0,0,1,692.48,296.24ZM967.2,205.86c11.37,0,22.78,3.78,33.45,11.15,12.81,8.85,18.65,22.08,24.3,34.87,1,2.19,1.94,4.39,3,6.58,4.06,8.8,8.55,16.69,13.31,25,2.63,4.63,5.36,9.41,8,14.36l.51,1c-.08-4.09.06-8.22.19-12.29.26-7.94.53-16.14-.82-23.5-2.52-13.66-6-32.38-15.06-45.44-4-5.81-9.41-9.58-15.09-13.57-7.27-5.11-14.78-10.39-19.05-20.16-6.09-14-6.34-32.27-6.55-48.43-.07-4.91-.13-9.55-.34-13.94-1-20.69-7-57.1-36-68.6-13.65-5.41-33.19-6.79-46.47-3.29C901.27,52.05,883.94,62,880.11,71c23.19.38,26.27,20.22,29,37.79l.36,2.29c2.8,17.78,10.31,17,23.93,15.7,2.46-.24,5-.48,7.68-.63,5.28-.28,9.13.85,11.77,3.46,2.83,2.8,4.08,7.12,3.82,13.23-.42,9.7-6.2,13.57-12.31,17.67L942.07,162c-5.87,4.07-9.24,8.82-10,14.11-.91,6.37,1.83,13.56,8.15,21.38a39.32,39.32,0,0,0,13.11,10.25q2.24-.63,4.5-1.05A51,51,0,0,1,967.2,205.86ZM625.58,276.51c.28.61.58,1.23.89,1.86.52,1.08.94,1.95,1.2,2.55,4.2,9.51,7.23,14.25,16.85,16.54,7.07,1.69,14.64,1.5,22.2.85a85.86,85.86,0,0,1-9.3-4.44c-11.12-6.17-23.81-14.3-23.16-22.4.32-4,3.77-7.22,10.27-9.57a48,48,0,0,1,17.6-2.45c-4.28-.56-8.47-1.17-12.52-1.79-1.48-.22-3-.49-4.38-.76-4.42-.81-8.59-1.57-13.35-1.21a27,27,0,0,0-3.59.53c1.7,6.59-.94,17.45-2.44,19.86C625.77,276.22,625.67,276.37,625.58,276.51ZM202.47,205.42c11.18,1.74,22.22,6.53,27.13,15,4.29,7.38,4.87,15.76,5.44,23.86s1.11,15.92,5.17,22.65c6,10,15.2,16.24,24.92,22.85,1.94,1.32,3.93,2.67,5.91,4.07a74.43,74.43,0,0,1-2.32-12.3c-.93-4.63-1.77-9.36-2.25-14.21-.17-1.71-.27-3.67-.37-5.74-.35-7.39-.79-16.58-5-20.8-2.63-2.67-6.47-3.81-10.53-5-4.48-1.34-9.55-2.86-13.72-6.7-7.95-7.33-9.77-14.2-10.23-23.6a2,2,0,0,1,4-.43c1.48,8.68,6.8,14.06,13,20.28,1.18,1.2,2.4,2.43,3.61,3.71a99.64,99.64,0,0,0,5.9-11.1c5.1-10.6,10.37-21.56,23.57-26.68,3.95-1.53,9.08-1.33,14-1.14,6.17.24,12.56.49,15.26-2.76s2.16-8.49,1.65-14.11c-.44-4.9-.9-10,.74-14.2a32.09,32.09,0,0,1,5.5-8.47c2.42-3,4.72-5.8,5.39-9.32,1-5.37-.39-10.9-1.75-16.24-.65-2.57-1.33-5.22-1.71-7.78-1-6.46-.51-13.53-.07-20.37.69-10.72,1.4-21.81-3.33-30.55-5.91-10.9-19.59-20.47-33.93-24.53-.34.22-.67.44-1,.67,17.83,4.1,32.09,25.38,37.21,38.88a2,2,0,0,1-2.6,2.57c-12.34-4.87-28.57,9.19-40.42,19.45-3.13,2.72-6.09,5.28-8.6,7.16a2,2,0,0,1-3-2.51c.71-1.39,1.43-2.82,2.16-4.26C269.68,89,278.06,72.3,295.73,68.18c-4.45-7.73-17.29-15.38-25.4-18-12.37-4.06-22.27-3.38-32.11,2.19a2,2,0,0,1-1.48.2A55.61,55.61,0,0,1,259.2,87.34c1.1,5.22.69,10.24.29,15.09a62.5,62.5,0,0,0-.25,10.92c.56,5.94,3,8.92,6.28,13,1.19,1.48,2.42,3,3.7,4.82l.27.38c3.42,4.87,4.14,5.88,3.72,7.45a3.33,3.33,0,0,1-2.09,2.08,8.33,8.33,0,0,0-4.07,3.95c-1.18,2.05-1.34,4.41-1.49,6.7-.17,2.58-.36,5.41-2.16,7.57,2.31,2,2,4.49,1.73,6.56a20,20,0,0,0-.19,2.38,2.05,2.05,0,0,1-.75,1.55c-.77,2.07-2.4,7.63-2.71,9a2.13,2.13,0,0,1-.16.6c-4.56,10.47-8.13,10.65-17.67,11.13-1,0-2,.09-3.11.16C222.83,191.69,210.05,196.65,202.47,205.42Zm367.08,84.49a65.71,65.71,0,0,0,8,.47c1.72,0,3.45.07,5.17.18-3.82-3.23-8.26-5.69-12.88-8.24l-2.94-1.65c-.24.16-.47.33-.71.51a55.08,55.08,0,0,0,3.23,8.38A1.48,1.48,0,0,1,569.55,289.91Zm-8.28-3.75a10.36,10.36,0,0,0,3.3,2.36c-.6-1.43-1.15-2.88-1.63-4.34C562.39,284.79,561.83,285.45,561.27,286.16Zm-9.8,1.87c2.21.18,4.31.33,6.16.46l.38,0a13.92,13.92,0,0,1-.91-1.17,2,2,0,0,1,0-2.32,36,36,0,0,1,4.55-5.25c-.22-.88-.41-1.75-.59-2.63a45.48,45.48,0,0,1-6.19-4.84,65.22,65.22,0,0,1-2,6.32A61.35,61.35,0,0,1,551.47,288Zm-20-4.09c2.71,1.67,7.85,2.7,13.28,3.39,1.53-3.13,3-6.32,4.23-9.57l0-.59c.13-2,.17-4,.14-6a29.71,29.71,0,0,1-4.62,5.28,29.17,29.17,0,0,1-7.74,4.57A27.41,27.41,0,0,0,531.46,283.94Zm-347-244.67c-17,0-33.44,6.26-45.58,21.69-14.15,18-20.13,43.22-25.91,67.62-2.75,11.63-5.35,22.61-8.78,32.7-5.32,15.7-9.75,31.55-14,46.87C84.51,228.21,78.7,249,71,269q-3.31,8.61-6.06,17.7,1.53-2.43,3-4.8c2.27-3.57,4.42-6.95,6.25-10.12a130.88,130.88,0,0,0,7.72-16.93c4.53-11.39,9.23-23.16,20.54-31.61a104.07,104.07,0,0,1,31.79-15.72c6.14-15.61,10-32.15,13.83-48.22,3.43-14.58,7-29.64,12.19-44.18,7-19.53,25.88-51,49.15-57.82C220,54.2,230.32,56.47,240.05,64a2,2,0,0,1,.77,1.48c0,.32,0,.64,0,1a2,2,0,0,1-1.67,2c-7.31,1.23-9,11.07-10.79,21.49-1.62,9.45-3.3,19.22-9.67,23.57-3.19,2.17-7.27,2.76-12.15,1.76a2,2,0,0,1-1.55-1.55c-.27-1.3-1.07-4.32-2.55-4.42-3-.22-8.81,7.3-10.34,11.6-2.08,5.85-3.09,12.18-4.07,18.3-.46,2.84-.93,5.77-1.49,8.58-4.35,21.59-15.42,33.68-29.51,48.52,13.34-2.12,29.68.26,39.77,8.46l.95.07c8.07-10.91,22.35-17,42.52-18.2l3.14-.17c9.12-.45,10.6-.53,14.09-8.48.17-.72.9-3.33,1.64-5.73a30,30,0,0,1,1.8-5.08c0-.66.12-1.26.19-1.82.31-2.47.37-3-2-4a2,2,0,0,1-.11-3.64c2.11-1,2.32-2.86,2.55-6.25.17-2.62.37-5.58,2-8.44a12.37,12.37,0,0,1,5.29-5.31c-.55-.87-1.52-2.25-2.66-3.86l-.27-.39c-1.21-1.71-2.39-3.18-3.54-4.6-3.48-4.31-6.48-8-7.15-15.18a64.79,64.79,0,0,1,.25-11.61c.39-4.78.76-9.3-.22-13.94a52.15,52.15,0,0,0-24.6-34.87C216.78,44.75,200.35,39.27,184.43,39.27ZM360.54,178.58a22.85,22.85,0,0,1,3.51.26c18.58,2.73,23.93,24.13,27.47,38.3l0,.13c4,15.86,5.43,32.57,4.48,51.1-.24,4.68-.77,9.54-1.36,14.64q18-6.43,36.44-14c-6.76-13.71-12.05-27.89-16.57-40.42-1.36-3.78-2.57-7.77-3.74-11.63-4.58-15.12-9.31-30.75-24.39-37.66-3.45-1.58-8.9-2.14-14.18-2.68-6.94-.7-13.49-1.37-17.5-4.21-6.45-4.56-4-12-2.22-17.47,1.64-5,2.21-7.47.36-8.46a2,2,0,0,1-.28-3.35c2.37-1.82,2.46-4,2.59-6.78.1-2.46.22-5.24,2.25-7.59s5.06-2.87,7.67-3.24c2.77-.4,4.7-.76,6.06-2.45-4-3.9-8.67-8.62-11.14-13.34-3.47-6.63-2.13-11.12-.84-15.46a29,29,0,0,0,1.49-7.69c.14-5.11-2.16-8.69-4.82-12.84-1-1.62-2.11-3.3-3.1-5.17-.39-.72-.89-1.55-1.41-2.42-1.82-3-3.88-6.4-3.93-9.76,0-2.55,1.41-4.41,2.58-5.9.87-1.12,1.63-2.09,1.68-3.11.26-5.16-3.08-9.11-9.94-11.73-15.79-6-43.27-3-58.24,3.52C297.39,44,310,53.45,315.9,64.41a33.86,33.86,0,0,1,3.48,10.2c1.17-7.76,3.6-14.14,7.93-17.88s9.72-4.39,16.44-2.31a2,2,0,0,1,1.33,1.35,2,2,0,0,1-.39,1.85c-1.65,2-1.39,3.25-.86,5.82.12.57.25,1.17.35,1.81,1.8,10.68,2.29,14.61.5,26.17-.95,6.19.25,8.45,2.06,11.88a41.05,41.05,0,0,1,3.23,7.4c2.4,7.57.08,12.45-2.37,17.62a47.86,47.86,0,0,0-3,7.33C342.48,143,344.06,149,345.9,156c.25,1,.51,2,.77,3,1.67,6.62,1.51,11.08-.53,14-2.45,3.53-6.82,4-11.44,4.56a41.65,41.65,0,0,0-6.55,1.09c1.78,2.17,4.18,3.34,7,4.72,1.32.64,2.68,1.3,4.07,2.12l.74.44C346.4,181.51,353.54,178.58,360.54,178.58ZM575.31,274c5.53,0,11,2.23,16.45,4.42a89.09,89.09,0,0,0,10.13,3.64,19.26,19.26,0,0,0,19-6c-2.61-5.63-5.47-12.65-5.39-17.78a17.55,17.55,0,0,1-2.28-.39,11.39,11.39,0,0,1-3.3-1.39,16.24,16.24,0,0,1-9.7,2,8.05,8.05,0,0,1,2.83,5.34c.09,2.28-1.2,4.38-3.85,6.23a2,2,0,0,1-2.63-.29c-3.73-4.08-6.35-9.16-8.46-14.61-2.66-1.56-4.88-3-6-4.41a2,2,0,0,1-.35-1.81,1.89,1.89,0,0,1,.28-.57,42.63,42.63,0,0,1-9.49-12.68,55.13,55.13,0,0,0-7.86,39.06l2.15,1.31A18.09,18.09,0,0,1,575.31,274ZM490,272.62l1.06.29A7.07,7.07,0,0,0,490,272.62Zm66-4.88a34.78,34.78,0,0,0,4.25,3.9,59.78,59.78,0,0,1,3-26c-1.42,3.07-3,6.24-4.6,9.41C557.78,259.75,556.85,264.06,556,267.74Zm63.46-9.54c-.07,2.29.9,6.37,3.92,13.42,1.13-3.88,2-10.82,1.08-14.46A35.16,35.16,0,0,1,619.45,258.2Zm-25.37.53a37.47,37.47,0,0,0,4.24,6.86,2.4,2.4,0,0,0,.78-1.61C599,262.41,596.73,260.5,594.08,258.73Zm-46.15-18.37a153.37,153.37,0,0,1,4.14,18.44q1.42-2.49,2.75-5c1.07-5.83,2-12.19,2.6-18.53C555.85,237.54,552.54,239.15,547.93,240.36Zm86.35,11.24A62.92,62.92,0,0,1,646,253c1.42.26,2.83.52,4.27.74,15.9,2.42,52.53,8,74.13,1.75a98.32,98.32,0,0,1-2.35-11c-1.65-9.58-3-17.14-14-23.57-8.45-4.94-18.39-7.73-28-10.43-3.57-1-7.25-2-10.75-3.16a39,39,0,0,1-12.82-6.48,172.07,172.07,0,0,1-34.3,45.58l-.71.68a89.8,89.8,0,0,1-7.56,6.78l.29.08a12.38,12.38,0,0,0,2.26.34,5.34,5.34,0,0,1,2.22-2.17c4.16-2.21,6.6-.76,7.72.38a32.79,32.79,0,0,1,5.18-.84C632.5,251.63,633.4,251.6,634.28,251.6ZM521.9,254.76c4.67.76,9.32,1.33,10.78.13l.12-.11c-1.11-.7-2.19-1.34-3.25-2a39.57,39.57,0,0,1-6.72-4.56A62.37,62.37,0,0,0,521.9,254.76Zm68.69-4.61a32.17,32.17,0,0,0,5,2.86c4.27,1.91,7.71,1.94,10.93.68l-1.08-1.1c-1.69-1.75-3.28-3.39-5.38-4-3.25-.91-6.46-.32-9.76.71C590.4,249.61,590.5,249.88,590.59,250.15Zm-47.68-8.71a70.15,70.15,0,0,0,4,11.19c-.82-3.86-1.8-7.65-2.85-11.4Zm-292.55-9.92,1.39.42c4.37,1.3,8.88,2.65,12.24,6.05s4.71,8.56,5.4,14c1.33-10.92,3.54-21.87,5.62-32.25,1.2-5.94,2.33-11.55,3.25-16.92a2,2,0,0,1,3.86-.32c3.63,10.38,13.28,28.09,22.2,35.56,3.38-9,4.75-18.47,6.07-27.63,1.12-7.71,2.27-15.68,4.61-23.45,1.6-5.27,4.35-8.35,7.51-10.22-3.08-8-2-18.62-.89-28.89l.18-1.75a36.72,36.72,0,0,1-4.84,7,28.89,28.89,0,0,0-4.87,7.39c-1.3,3.36-.89,8-.48,12.4.56,6.18,1.14,12.57-2.57,17-4,4.76-11.34,4.48-18.48,4.2-4.56-.18-9.27-.36-12.44.87-11.73,4.55-16.65,14.78-21.41,24.69A104.17,104.17,0,0,1,250.36,231.52Zm346.36,12.65a16.37,16.37,0,0,1,4.43.59c3.13.88,5.19,3,7.17,5,.64.65,1.26,1.29,1.9,1.88a71.89,71.89,0,0,0,8.47-7.43l.72-.69A168.29,168.29,0,0,0,653.47,198a21,21,0,0,1-3.29-5.06l-2.24-1.09c-7.83-3.81-15.93-7.75-17.83-14.77-1.11-4.14.06-8.71,3.6-14q1.68-2.49,3.28-4.81c7.37-10.71,13.2-19.18,14-33.65.17-2.83.5-6,.85-9.31,1.35-12.83,3-28.79-4-37.26-7.82-9.4-29.11-14.44-41.1-14-2.19,15.71-15.14,43.73-31.17,45a12.91,12.91,0,0,1-5.91-1.17c-2.21-.86-3.43-1.34-5.47.2-2.32,1.74-3.38,7.36-3.41,12.17s2.3,12.88,6.57,15.42c1.77,1.06,3.72,1,6-.26a2,2,0,0,1,2.95,1.55c.23,2.27.63,4.92,1.05,7.73,1.56,10.44,3.5,23.36-.6,31.68a183.83,183.83,0,0,1-2.31,35.87,37.81,37.81,0,0,1,4.94,7c3.74,6.39,6.05,14.1,8.29,21.56.46,1.54.92,3.1,1.4,4.64A25.73,25.73,0,0,1,596.72,244.17Zm-23.57-14.82a1.9,1.9,0,0,1,.4.05,2,2,0,0,1,1.54,1.47c1.22,4.94,5.17,10.33,9.82,14.7-.36-1.18-.71-2.37-1.06-3.54-2.17-7.23-4.41-14.71-7.92-20.69-.95-1.62-1.75-3-2.48-4a103.54,103.54,0,0,1-5.78,18.37c-.21.47-.41,1-.62,1.44a55.07,55.07,0,0,1,4.5-7A2,2,0,0,1,573.15,229.35Zm-11.6-13.29a31.78,31.78,0,0,1,.36,3.86,135,135,0,0,1-1.14,21.52c1.17-2.58,2.24-5.06,3.22-7.34a102.2,102.2,0,0,0,6.09-20.23c-1.93-.85-4.14.12-8.35,2.11Zm-23.26,14.22a13.3,13.3,0,0,0-7.38,2.55,17.79,17.79,0,0,0-5.22,6.6c4-.33,8.35-.74,12.45-1.3A22.21,22.21,0,0,1,538.29,230.28ZM523,213.41c-1.21,4.89-2,20.9-1.4,24.26,0,.28.1.55.16.82a22,22,0,0,1,6.79-8.87,17.39,17.39,0,0,1,11.11-3.37,173.37,173.37,0,0,1-4.21-17.31l-1,0a56.39,56.39,0,0,0-6,2.05C526.6,211.78,524.75,212.59,523,213.41Zm18.9,20.44a23.91,23.91,0,0,0,.25,3.67l.79-.14Zm3.36-2.74.09.32q.76,2.55,1.51,5.11a19.1,19.1,0,0,0,6.16-2.42A41.67,41.67,0,0,0,545.24,231.11ZM885.51,198a13.45,13.45,0,0,1,5.16.89c11.11,4.57,22.82,23.26,27.52,34.48,8.42-11.27,18.77-19.47,30-23.84A41.08,41.08,0,0,1,937.1,200c-7-8.72-10.07-16.95-9-24.46.93-6.45,4.86-12.11,11.68-16.84.79-.54,1.56-1.07,2.33-1.58,5.93-4,10.21-6.85,10.54-14.53.21-4.84-.68-8.28-2.63-10.21-1.79-1.77-4.64-2.52-8.74-2.31-2.6.14-5.1.39-7.51.63-13.35,1.3-24.88,2.44-28.27-19.07l-.36-2.3C902.33,91.18,899.68,74,877.54,75a2,2,0,0,1-2-1.52A33.53,33.53,0,0,1,872,81c-6.69,10.25-6.41,17.31-6.17,23.55.28,7.38.55,14.36-10.59,23.12-3.85,3-8.65,6.81-8.34,8.61.07.4.72,1.84,6.12,3.64,4.51,1.51,7.49,4.19,8.6,7.76.82,2.65.92,6.93-2.94,12.65,2.07,2.06,4.2,2,8,1.77a44.22,44.22,0,0,1,9.52.3,2,2,0,0,1,1.47,2.91c-2.89,5.44-7.31,7.19-11.21,8.73a18.74,18.74,0,0,0-5.76,3.05,11.34,11.34,0,0,1,3.19,5c.25.63.54,1.34.91,2.15,1,2.2.59,4.53.2,6.59-.48,2.54-.69,4.19.42,5.69,2.59,3.5,6.73,3.15,13.25,2.17A46.82,46.82,0,0,1,885.51,198ZM544.65,226.86a46.94,46.94,0,0,1,12.43,4.87,2,2,0,0,1,.59.48,110.32,110.32,0,0,0,.24-12.13c0-.79-.07-1.52-.13-2.18C553.39,220.1,547.9,223.24,544.65,226.86Zm-10.73-32.33c-23.09,4.26-36.09,15.05-40.74,34.18,6.19-7.21,16.46-13.39,26.64-18.23a3.28,3.28,0,0,1,.38-.65c3-4,8.4-4.93,13.72-4.93l.82-.23A88.88,88.88,0,0,1,533.92,194.53Zm5.61,14.71c.87,4.59,2,9.14,3.33,13.72,4-3.84,9.57-6.9,14-9.07-1.48-3-4.87-3.45-12.75-4.18-.73-.06-1.53-.15-2.37-.24Zm6.35-3.38c7.85.76,12.41,1.65,14.56,6.31,4.63-2.16,7.73-3,10.35-2.28a160.89,160.89,0,0,0,1.94-21C568,198.9,556.81,202.9,545.88,205.86Zm-205.8-15a63.41,63.41,0,0,0-14.33,15.58c7.93-4.49,14-5.79,23.93-6.14-.75-.8-1.46-1.58-2.15-2.35A48.32,48.32,0,0,0,340.08,190.83ZM218.44,60a28.3,28.3,0,0,0-7.9,1.16c-21.83,6.35-39.76,36.57-46.49,55.34-5.14,14.32-8.66,29.27-12.07,43.73-3.6,15.27-7.29,30.95-12.93,46,14.65-3.71,30.32-4.46,44.74-.78a49.42,49.42,0,0,1,5.7-.63c-11-5.8-26.78-6.42-37.82-3.1a2,2,0,0,1-2-3.29l3.41-3.59c14.17-14.92,25.37-26.7,29.61-47.74.55-2.73,1-5.49,1.46-8.42,1-6.3,2-12.81,4.25-19,1.58-4.44,8.36-14.67,14.38-14.25,2,.13,4.49,1.35,5.87,6.25,3.24.48,5.82,0,7.85-1.36,5-3.39,6.51-12.31,8-20.93,1.72-10,3.49-20.34,10.85-23.78A29.8,29.8,0,0,0,218.44,60ZM537.89,193.87a78.8,78.8,0,0,0,.72,9.76l1.63-.42c11.83-3.06,25.22-6.53,29.38-17.26a17.64,17.64,0,0,0,.7-2.25C561.49,190.09,547.35,192.38,537.89,193.87ZM549.2,164.8c-6.78,0-7.16,1.76-9,10.41-.18.86-.38,1.77-.6,2.74a68.76,68.76,0,0,0-1.6,11.86c9.74-1.54,25.72-4.29,32.81-11.77a30.92,30.92,0,0,0-3.37-11.23A98.82,98.82,0,0,0,552,164.87C551,164.83,550,164.8,549.2,164.8ZM608.37,60c13.43,0,34.11,5.33,42.59,15.51,8.11,9.77,6.33,26.66,4.9,40.24-.35,3.29-.67,6.39-.83,9.12-.91,15.59-7.32,24.91-14.75,35.69-1,1.54-2.14,3.12-3.25,4.77-2.85,4.24-3.85,7.74-3,10.7,1.34,5,7.9,8.4,14.55,11.65-2-10.87,3.43-23.87,8.69-36.5,2.83-6.8,5.76-13.83,7.32-20.15,8.9-35.9,1.68-77.53-34.53-89.62-6.36-2.12-16.18-3.58-24.67-1.3-1.78.47-3.35,1-4.86,1.41a59.18,59.18,0,0,1-8.82,2.18,23.47,23.47,0,0,1-6.24-.09,17.23,17.23,0,0,0-6,.06c-17.26,4-26.11,23.84-28.64,41-3.29,22.41-1.93,38.5,4.58,53.81,1.8,4.25,4.7,8.69,7.77,13.39,2.38,3.66,4.88,7.48,6.94,11.41,1.61.36,3.22.75,4.82,1.18l.3.11c.17-6.16-.88-13.16-1.8-19.27-.27-1.83-.54-3.6-.76-5.26a9,9,0,0,1-7.3-.91c-5.86-3.49-8.55-13.33-8.52-18.88,0-2.73.42-11.91,5-15.35,3.82-2.87,6.87-1.68,9.32-.73a9.18,9.18,0,0,0,4.13.91C589.08,104,601.69,76.05,603,62a2,2,0,0,1,1.82-1.81C605.93,60.05,607.12,60,608.37,60ZM336.89,57.28a10.26,10.26,0,0,0-7,2.48c-12.36,10.66-6.09,51.22-4,64.54.15.93.27,1.73.37,2.4.94,6.34.13,14.08-.66,21.57-1,9.71-2.07,19.74.58,26.84a40.16,40.16,0,0,1,8.08-1.51c3.85-.44,7.18-.81,8.6-2.86,1.29-1.87,1.28-5.5-.06-10.77-.25-1-.51-2-.76-2.94-1.9-7.23-3.7-14.06-1.24-22.5a51.21,51.21,0,0,1,3.2-7.93c2.28-4.81,4.09-8.62,2.17-14.7a38.06,38.06,0,0,0-3-6.73c-1.95-3.68-3.64-6.86-2.48-14.36,1.7-11,1.27-14.48-.49-24.9-.1-.58-.21-1.14-.32-1.66-.44-2.11-.88-4.27.11-6.65A16.9,16.9,0,0,0,336.89,57.28ZM572.26,167.92c.08.18.15.36.22.53,0-.16,0-.32,0-.48ZM319.31,104.3a65.82,65.82,0,0,0,.43,12.34c.36,2.36,1,4.8,1.63,7.38.37,1.41.73,2.84,1.06,4.28,0-.34-.09-.68-.14-1-.09-.66-.22-1.46-.36-2.37C320.94,118.5,320,111.43,319.31,104.3ZM255.64,43.52a50.86,50.86,0,0,1,15.93,2.82c9.5,3.11,25.27,12.46,28.93,22.64a2,2,0,0,1-1.57,2.65C283.2,74.08,274.87,87.84,268,101.25l1.06-.92c11.45-9.92,26.75-23.15,40.37-21.24-6.21-13.6-20.08-32.18-36.5-33.29a2,2,0,0,1-1.69-1.2,2,2,0,0,1,.27-2.06,16.64,16.64,0,0,1,1.91-1.95,50.67,50.67,0,0,0-6.4-.81c-6.28-.37-14.28.41-21.12,5A37,37,0,0,1,255.64,43.52Zm605.49,39c1.5,0,1.78-.63,2.35-2.19a12.91,12.91,0,0,1,2.13-4c1.58-1.91,3.59-4.09,5.71-6.39.52-.57,1.06-1.14,1.59-1.73,3.19-12.62,2.74-29.64-1.91-39-6.72-13.49-26.46-15.38-41.84-14.59-11.46.59-37.19,8-40.24,19.91l4.3-1c10.43-2.58,20.29-5,32.72-3.85,17.56,1.66,18.14,7.5,17.69,18.54-.1,2.32-.2,4.91-.1,7.77C854.4,60.89,863.46,70.69,861.13,82.53Zm-26.22-72c15.4,0,32.88,3.32,39.67,17C878.84,36,879.9,50,878.12,62.31a41.51,41.51,0,0,0,3.3-4.48c3.5-5.67,3.3-12.77-.62-21.69-5.66-12.87-19.64-25.27-33.24-29.48-15-4.64-29.82-2.28-45.52.21l-6.35,1c-1.43.22-2.85.37-4.22.51-7.16.76-11.3,1.46-13.24,7.14-2.14,6.26,2.76,14.82,6.59,19.1,2.69-15.34,32-23.34,44.14-24C830.88,10.54,832.88,10.48,834.91,10.48Z" transform="translate(0 0)"/>
</svg>
